<mxfile host="app.diagrams.net" modified="2024-08-14T07:49:02.956Z" agent="Mozilla/5.0 (Windows NT 10.0; Win64; x64) AppleWebKit/537.36 (KHTML, like Gecko) Chrome/127.0.0.0 Safari/537.36" version="24.2.3" etag="DvU5a_Q8ipX6whp2_-eR" type="github">
  <diagram name="第 1 页" id="9rBXyp4EF1E8zlQmuVuA">
    <mxGraphModel>
      <root>
        <mxCell id="0" />
        <mxCell id="1" parent="0" />
      </root>
    </mxGraphModel>
  </diagram>
</mxfile>
